<?xml version="1.0" standalone="no"?>
<!DOCTYPE svg PUBLIC "-//W3C//DTD SVG 20010904//EN"
 "http://www.w3.org/TR/2001/REC-SVG-20010904/DTD/svg10.dtd">
<svg version="1.0" xmlns="http://www.w3.org/2000/svg"
 width="260.000000pt" height="260.000000pt" viewBox="0 0 260.000000 260.000000"
 preserveAspectRatio="xMidYMid meet">
<metadata>
Created by potrace 1.14, written by Peter Selinger 2001-2017
</metadata>
<g transform="translate(0.000000,260.000000) scale(0.100000,-0.100000)"
fill="#000000" stroke="none">
<path d="M1160 2584 c-78 -7 -204 -39 -300 -76 -351 -136 -622 -409 -753 -758
-61 -162 -72 -232 -72 -445 0 -246 24 -358 123 -565 116 -245 347 -476 592
-592 207 -99 319 -123 565 -123 223 0 289 12 470 83 192 76 329 170 485 336
122 130 247 358 288 526 6 25 16 68 24 95 18 69 18 400 -1 480 -57 254 -175
481 -338 649 -188 192 -396 308 -678 375 -51 13 -323 22 -405 15z m260 -719
l0 -55 440 0 440 0 0 -115 0 -115 -56 0 c-30 0 -64 -4 -74 -10 -10 -5 -98 -91
-197 -189 -145 -147 -189 -185 -238 -208 l-60 -28 -345 -5 c-239 -3 -351 -9
-365 -17 -11 -6 -60 -52 -110 -102 l-90 -91 768 0 767 0 0 -115 0 -115 -992 2
-993 3 0 110 0 110 68 6 68 6 192 191 c141 139 207 197 243 214 47 22 61 23
401 28 l352 5 38 35 c21 19 68 64 106 100 l68 65 -768 5 -768 5 0 110 0 110
443 3 442 2 0 55 0 55 110 0 110 0 0 -55z"/>
</g>
</svg>
